<svg xmlns="http://www.w3.org/2000/svg" viewBox="0 0 1600 900" role="img" aria-labelledby="t d"><title id="t">Chimney Bluffs family hike plan</title><desc id="d">Lake Ontario, steep earthen bluffs, a safe marked trail and an orange turnaround flag</desc><rect width="1600" height="900" fill="#dce9e5"/><path d="M0 390h1600v510H0z" fill="#6b9fb2"/><path d="M0 360Q250 260 470 370T920 325t680 45v130H0z" fill="#a9c8c2"/><path d="M0 900V530l180-35 150-180 120 210 155-345 155 370 155-290 165 335 190-205 180 260 170-50v300z" fill="#a87345"/><path d="M80 795c270-170 500-80 720-150s430-225 680-145" fill="none" stroke="#f5f1e8" stroke-width="42" stroke-linecap="round"/><path d="M80 795c270-170 500-80 720-150s430-225 680-145" fill="none" stroke="#284a3c" stroke-width="8" stroke-dasharray="24 18"/><path d="M825 645v-150" stroke="#111815" stroke-width="12"/><path d="m837 500 150 42-150 48z" fill="#ff6a2a"/><text x="1010" y="230" font-family="Arial,sans-serif" font-size="72" font-weight="700" fill="#111815">TURN AROUND</text><text x="1010" y="305" font-family="Arial,sans-serif" font-size="42" fill="#284a3c">while the legs still work</text></svg>